<?xml version="1.0" encoding="UTF-8" standalone="no"?>
<!DOCTYPE svg PUBLIC "-//W3C//DTD SVG 1.1//EN" "http://www.w3.org/Graphics/SVG/1.1/DTD/svg11.dtd">
<svg width="100%" height="100%" viewBox="0 0 751 751" version="1.1" xmlns="http://www.w3.org/2000/svg" xmlns:xlink="http://www.w3.org/1999/xlink" xml:space="preserve" xmlns:serif="http://www.serif.com/" style="fill-rule:evenodd;clip-rule:evenodd;stroke-linejoin:round;stroke-miterlimit:2;">
    <g transform="matrix(1,0,0,1,-1591,-2757)">
        <g id="IconToolTipTop" transform="matrix(0.571646,0,0,0.615258,-63.2902,2757.28)">
            <rect x="2894.42" y="0" width="1312" height="1219" style="fill:none;"/>
            <g transform="matrix(12.7085,0,0,11.8077,3029.99,158.992)">
                <path d="M23.699,9.644C12.101,9.644 2.699,19.046 2.699,30.644L2.699,38.414C2.699,50.013 12.101,59.414 23.699,59.414L34.86,59.414L40.16,66.275C40.56,66.794 41.342,66.794 41.743,66.275L47.042,59.414L58.203,59.414C69.801,59.414 79.203,50.012 79.203,38.414L79.203,30.644C79.203,19.046 69.801,9.644 58.203,9.644L23.699,9.644Z" style="fill:rgb(3,176,170);"/>
            </g>
        </g>
    </g>
</svg>
