<?xml version="1.0" encoding="UTF-8" standalone="no"?>
<!DOCTYPE svg PUBLIC "-//W3C//DTD SVG 1.1//EN" "http://www.w3.org/Graphics/SVG/1.1/DTD/svg11.dtd">
<svg width="100%" height="100%" viewBox="0 0 751 751" version="1.1" xmlns="http://www.w3.org/2000/svg" xmlns:xlink="http://www.w3.org/1999/xlink" xml:space="preserve" xmlns:serif="http://www.serif.com/" style="fill-rule:evenodd;clip-rule:evenodd;stroke-linecap:round;stroke-linejoin:round;stroke-miterlimit:2;">
    <g transform="matrix(1,0,0,1,-1,-1894)">
        <g id="IconPhone" transform="matrix(0.571646,0,0,0.615258,-1653.21,1894.03)">
            <rect x="2894.42" y="0" width="1312" height="1219" style="fill:none;"/>
            <g id="resources" transform="matrix(6.61522,4.25915e-16,2.22022e-15,8.0244,-18090.7,-8227.2)">
                <path d="M3312.51,1067.92L3312.51,1134.54C3312.51,1143.23 3303.31,1150.28 3291.97,1150.28L3250.88,1150.28C3239.54,1150.28 3230.33,1143.23 3230.33,1134.54L3230.33,1067.92C3230.33,1059.23 3239.54,1052.18 3250.88,1052.18L3291.97,1052.18C3303.31,1052.18 3312.51,1059.23 3312.51,1067.92Z" style="fill:rgb(250,154,106);"/>
                <clipPath id="_clip1">
                    <path d="M3312.51,1067.92L3312.51,1134.54C3312.51,1143.23 3303.31,1150.28 3291.97,1150.28L3250.88,1150.28C3239.54,1150.28 3230.33,1143.23 3230.33,1134.54L3230.33,1067.92C3230.33,1059.23 3239.54,1052.18 3250.88,1052.18L3291.97,1052.18C3303.31,1052.18 3312.51,1059.23 3312.51,1067.92Z"/>
                </clipPath>
                <g clip-path="url(#_clip1)">
                    <g id="resources1" serif:id="resources" transform="matrix(1,0,2.77556e-17,1,4.03805,2.37677)">
                        <path d="M3312.51,1067.92L3312.51,1134.54C3312.51,1143.23 3303.31,1150.28 3291.97,1150.28L3250.88,1150.28C3239.54,1150.28 3230.33,1143.23 3230.33,1134.54L3230.33,1067.92C3230.33,1059.23 3239.54,1052.18 3250.88,1052.18L3291.97,1052.18C3303.31,1052.18 3312.51,1059.23 3312.51,1067.92Z" style="fill:rgb(250,154,106);"/>
                        <clipPath id="_clip2">
                            <path d="M3312.51,1067.92L3312.51,1134.54C3312.51,1143.23 3303.31,1150.28 3291.97,1150.28L3250.88,1150.28C3239.54,1150.28 3230.33,1143.23 3230.33,1134.54L3230.33,1067.92C3230.33,1059.23 3239.54,1052.18 3250.88,1052.18L3291.97,1052.18C3303.31,1052.18 3312.51,1059.23 3312.51,1067.92Z"/>
                        </clipPath>
                        <g clip-path="url(#_clip2)">
                            <g transform="matrix(0.956993,-5.07948e-17,-2.6636e-16,0.733011,3131.34,1060.08)">
                                <g transform="matrix(1,0,0,1,0,-104.653)">
                                    <rect x="72.818" y="105.123" width="43.742" height="9.847" style="fill:rgb(250,182,145);"/>
                                </g>
                                <g transform="matrix(1,0,0,1,0,88.8548)">
                                    <rect x="43.278" y="8.369" width="41.379" height="9.847" style="fill:rgb(250,182,145);"/>
                                </g>
                                <g transform="matrix(1,0,0,1,0,-40.5848)">
                                    <rect x="41.199" y="73.089" width="44.099" height="9.847" style="fill:rgb(250,182,145);"/>
                                </g>
                                <g transform="matrix(1,0,0,1,0,26.417)">
                                    <rect x="7.45" y="39.588" width="44.099" height="9.847" style="fill:rgb(250,182,145);"/>
                                </g>
                                <g transform="matrix(1,0,0,1,0,-104.653)">
                                    <rect x="7.45" y="105.123" width="44.099" height="9.847" style="fill:rgb(250,182,145);"/>
                                </g>
                                <g transform="matrix(1,0,0,1,0,119.132)">
                                    <rect x="56.862" y="-6.838" width="9.847" height="9.984" style="fill:rgb(246,143,95);"/>
                                </g>
                                <g transform="matrix(1,0,0,1,0,-40.3251)">
                                    <rect x="90.119" y="56.268" width="9.847" height="43.23" style="fill:rgb(246,143,95);"/>
                                </g>
                                <g transform="matrix(1,0,0,1,0,25.7433)">
                                    <rect x="56.862" y="23.234" width="9.847" height="43.23" style="fill:rgb(246,143,95);"/>
                                </g>
                                <g transform="matrix(1,0,0,1,0,81.5152)">
                                    <rect x="90.119" y="0.108" width="9.847" height="33.709" style="fill:rgb(246,143,95);"/>
                                </g>
                                <g transform="matrix(0,-1,-1,0,172.682,66.3297)">
                                    <path d="M39.804,105.973L81.405,105.973L83.768,115.819L39.804,115.819L39.804,105.973Z" style="fill:rgb(246,143,95);"/>
                                </g>
                                <g transform="matrix(1,0,0,1,0,-40.5848)">
                                    <rect x="105.385" y="73.089" width="41.661" height="9.847" style="fill:rgb(250,182,145);"/>
                                </g>
                                <g transform="matrix(1,0,0,1,0,-104.653)">
                                    <rect x="199.935" y="105.123" width="43.742" height="9.847" style="fill:rgb(250,182,145);"/>
                                </g>
                                <g transform="matrix(1,0,0,1,0,88.8548)">
                                    <rect x="168.316" y="8.369" width="43.458" height="9.847" style="fill:rgb(250,182,145);"/>
                                </g>
                                <g transform="matrix(1,0,0,1,0,-40.5848)">
                                    <rect x="168.316" y="73.089" width="43.458" height="9.847" style="fill:rgb(250,182,145);"/>
                                </g>
                                <g transform="matrix(1,0,0,1,0,26.417)">
                                    <rect x="134.567" y="39.588" width="44.099" height="9.847" style="fill:rgb(250,182,145);"/>
                                </g>
                                <g transform="matrix(1,0,0,1,0,-104.653)">
                                    <rect x="134.567" y="105.123" width="44.099" height="9.847" style="fill:rgb(250,182,145);"/>
                                </g>
                                <g transform="matrix(1,0,0,1,0,88.8548)">
                                    <rect x="105.385" y="8.369" width="41.661" height="9.847" style="fill:rgb(250,182,145);"/>
                                </g>
                                <g transform="matrix(1,0,0,1,0,26.417)">
                                    <rect x="72.818" y="39.588" width="43.742" height="9.847" style="fill:rgb(250,182,145);"/>
                                </g>
                                <g transform="matrix(1,0,0,1,0,119.132)">
                                    <rect x="183.979" y="-6.838" width="9.847" height="9.984" style="fill:rgb(246,143,95);"/>
                                </g>
                                <g transform="matrix(1,0,0,1,0,-40.3251)">
                                    <rect x="150.967" y="56.268" width="9.847" height="43.23" style="fill:rgb(246,143,95);"/>
                                </g>
                                <g transform="matrix(1,0,0,1,0,-40.3251)">
                                    <rect x="217.236" y="56.268" width="9.847" height="43.23" style="fill:rgb(246,143,95);"/>
                                </g>
                                <g transform="matrix(1,0,0,1,0,25.7433)">
                                    <rect x="183.979" y="23.234" width="9.847" height="43.23" style="fill:rgb(246,143,95);"/>
                                </g>
                                <g transform="matrix(1,0,0,1,0,25.7433)">
                                    <rect x="120.89" y="23.234" width="9.847" height="43.23" style="fill:rgb(246,143,95);"/>
                                </g>
                                <g transform="matrix(1,0,0,1,0,89.4067)">
                                    <rect x="150.967" y="-7.784" width="9.847" height="41.601" style="fill:rgb(246,143,95);"/>
                                </g>
                                <g transform="matrix(1,0,0,1,0,81.5152)">
                                    <rect x="217.236" y="0.108" width="9.847" height="33.709" style="fill:rgb(246,143,95);"/>
                                </g>
                                <g transform="matrix(0,-1,-1,0,299.798,193.447)">
                                    <path d="M166.92,105.972L208.522,105.972L210.885,115.819L166.92,115.819L166.92,105.972Z" style="fill:rgb(246,143,95);"/>
                                </g>
                                <g transform="matrix(1,0,0,1,0,-88.7816)">
                                    <rect x="120.89" y="88.914" width="9.847" height="26.394" style="fill:rgb(246,143,95);"/>
                                </g>
                                <g transform="matrix(1,0,0,1,0,-40.5848)">
                                    <rect x="232.502" y="73.089" width="41.652" height="9.847" style="fill:rgb(250,182,145);"/>
                                </g>
                                <g transform="matrix(1,0,0,1,0,88.8548)">
                                    <rect x="232.502" y="8.369" width="43.731" height="9.847" style="fill:rgb(250,182,145);"/>
                                </g>
                                <g transform="matrix(1,0,0,1,0,26.417)">
                                    <rect x="199.935" y="39.588" width="43.742" height="9.847" style="fill:rgb(250,182,145);"/>
                                </g>
                            </g>
                        </g>
                        <path d="M3312.51,1067.92L3312.51,1134.54C3312.51,1143.23 3303.31,1150.28 3291.97,1150.28L3250.88,1150.28C3239.54,1150.28 3230.33,1143.23 3230.33,1134.54L3230.33,1067.92C3230.33,1059.23 3239.54,1052.18 3250.88,1052.18L3291.97,1052.18C3303.31,1052.18 3312.51,1059.23 3312.51,1067.92Z" style="fill:none;stroke:rgb(243,117,88);stroke-width:5px;"/>
                    </g>
                    <g id="resources2" serif:id="resources" transform="matrix(1,0,2.77556e-17,1,-2.01903,-1.18838)">
                        <path d="M3312.51,1067.92L3312.51,1134.54C3312.51,1143.23 3303.31,1150.28 3291.97,1150.28L3250.88,1150.28C3239.54,1150.28 3230.33,1143.23 3230.33,1134.54L3230.33,1067.92C3230.33,1059.23 3239.54,1052.18 3250.88,1052.18L3291.97,1052.18C3303.31,1052.18 3312.51,1059.23 3312.51,1067.92ZM3310.14,1067.92C3310.14,1060.24 3302,1054 3291.97,1054L3250.88,1054C3240.85,1054 3232.7,1060.24 3232.7,1067.92L3232.7,1134.54C3232.7,1142.22 3240.85,1148.46 3250.88,1148.46L3291.97,1148.46C3302,1148.46 3310.14,1142.22 3310.14,1134.54L3310.14,1067.92Z" style="fill:rgb(250,154,106);"/>
                    </g>
                    <g transform="matrix(1.36168,0.202268,-0.224882,0.888191,-931.656,-533.308)">
                        <ellipse cx="3251.11" cy="1068.13" rx="6.486" ry="7.622" style="fill:rgb(112,84,50);"/>
                        <clipPath id="_clip3">
                            <ellipse cx="3251.11" cy="1068.13" rx="6.486" ry="7.622"/>
                        </clipPath>
                        <g clip-path="url(#_clip3)">
                            <path d="M3252.47,1060.68C3255.4,1061.41 3257.6,1064.47 3257.6,1068.13C3257.6,1072.34 3254.69,1075.76 3251.11,1075.76C3249.93,1075.76 3248.82,1075.38 3247.86,1074.73C3248.3,1074.84 3248.75,1074.9 3249.22,1074.9C3252.8,1074.9 3255.7,1071.48 3255.7,1067.28C3255.7,1064.46 3254.4,1062 3252.47,1060.68Z" style="fill:rgb(243,117,88);"/>
                        </g>
                    </g>
                </g>
                <path d="M3312.51,1067.92L3312.51,1134.54C3312.51,1143.23 3303.31,1150.28 3291.97,1150.28L3250.88,1150.28C3239.54,1150.28 3230.33,1143.23 3230.33,1134.54L3230.33,1067.92C3230.33,1059.23 3239.54,1052.18 3250.88,1052.18L3291.97,1052.18C3303.31,1052.18 3312.51,1059.23 3312.51,1067.92Z" style="fill:none;stroke:rgb(112,84,50);stroke-width:5px;"/>
            </g>
        </g>
    </g>
</svg>
