<?xml version="1.0" encoding="UTF-8" standalone="no"?>
<!DOCTYPE svg PUBLIC "-//W3C//DTD SVG 1.1//EN" "http://www.w3.org/Graphics/SVG/1.1/DTD/svg11.dtd">
<svg width="100%" height="100%" viewBox="0 0 751 751" version="1.1" xmlns="http://www.w3.org/2000/svg" xmlns:xlink="http://www.w3.org/1999/xlink" xml:space="preserve" xmlns:serif="http://www.serif.com/" style="fill-rule:evenodd;clip-rule:evenodd;stroke-linejoin:round;stroke-miterlimit:2;">
    <g transform="matrix(1,0,0,1,-804,-1894)">
        <g id="IconChat" transform="matrix(0.571646,0,0,0.615258,-850.427,1894.03)">
            <rect x="2894.42" y="0" width="1312" height="1219" style="fill:none;"/>
            <g transform="matrix(1,0,0,1,-434,-339.399)">
                <g transform="matrix(12.7085,0,0,11.8077,3481.14,555.324)">
                    <path d="M23.699,9.644C12.101,9.644 2.699,19.046 2.699,30.644L2.699,38.414C2.699,50.013 12.101,59.414 23.699,59.414L34.86,59.414L40.16,66.275C40.56,66.794 41.342,66.794 41.743,66.275L47.042,59.414L58.203,59.414C69.801,59.414 79.203,50.012 79.203,38.414L79.203,30.644C79.203,19.046 69.801,9.644 58.203,9.644L23.699,9.644Z" style="fill:rgb(245,241,230);"/>
                </g>
                <g transform="matrix(12.7085,0,0,11.8077,3481.14,555.324)">
                    <circle cx="20.85" cy="35.838" r="5.79" style="fill:rgb(94,72,59);"/>
                </g>
                <g transform="matrix(12.7085,0,0,11.8077,3481.14,555.324)">
                    <circle cx="40.429" cy="35.838" r="5.79" style="fill:rgb(94,72,59);"/>
                </g>
                <g transform="matrix(12.7085,0,0,11.8077,3481.14,555.324)">
                    <circle cx="60.008" cy="35.838" r="5.79" style="fill:rgb(94,72,59);"/>
                </g>
                <g transform="matrix(12.7085,0,0,11.8077,3481.14,555.324)">
                    <path d="M33.569,9L33.569,10.287C33.569,15.254 29.537,19.287 24.569,19.287L9,19.287C4.033,19.287 0,15.254 0,10.287L0,9C0,4.033 4.033,0 9,0L24.569,0C29.537,0 33.569,4.033 33.569,9Z" style="fill:rgb(245,131,164);"/>
                </g>
            </g>
        </g>
    </g>
</svg>
