<?xml version="1.0" encoding="UTF-8" standalone="no"?>
<!DOCTYPE svg PUBLIC "-//W3C//DTD SVG 1.1//EN" "http://www.w3.org/Graphics/SVG/1.1/DTD/svg11.dtd">
<svg width="100%" height="100%" viewBox="0 0 751 751" version="1.1" xmlns="http://www.w3.org/2000/svg" xmlns:xlink="http://www.w3.org/1999/xlink" xml:space="preserve" xmlns:serif="http://www.serif.com/" style="fill-rule:evenodd;clip-rule:evenodd;stroke-linejoin:round;stroke-miterlimit:2;">
    <g transform="matrix(1,0,0,1,-2423,-1894)">
        <g id="IconSelected" transform="matrix(0.571646,0,0,0.615258,769.04,1894.03)">
            <rect x="2894.42" y="0" width="1312" height="1219" style="fill:none;"/>
            <g transform="matrix(14.993,0,0,13.9302,-14766.2,-6282.27)">
                <g transform="matrix(1.5477,0,0,1.5477,-3428.82,-1255.03)">
                    <path d="M3004.77,1148.81C3014.85,1148.81 3023.03,1140.64 3023.03,1130.55C3023.03,1120.47 3014.85,1112.3 3004.77,1112.3C2994.69,1112.3 2986.52,1120.47 2986.52,1130.55C2986.52,1140.64 2994.69,1148.81 3004.77,1148.81ZM3004.77,1146.1C3013.36,1146.1 3020.31,1139.14 3020.31,1130.55C3020.31,1121.97 3013.36,1115.01 3004.77,1115.01C2996.19,1115.01 2989.23,1121.97 2989.23,1130.55C2989.23,1139.14 2996.19,1146.1 3004.77,1146.1Z" style="fill:rgb(255,250,230);"/>
                </g>
                <g transform="matrix(1.5477,0,0,1.5477,-3428.82,-1255.03)">
                    <path d="M3004.77,1146.1C3013.36,1146.1 3020.31,1139.14 3020.31,1130.55C3020.31,1121.97 3013.36,1115.01 3004.77,1115.01C2996.19,1115.01 2989.23,1121.97 2989.23,1130.55C2989.23,1139.14 2996.19,1146.1 3004.77,1146.1ZM2994.24,1131.36L2996.68,1129.04C2996.98,1128.66 2997.74,1128.12 2998.42,1129.04C2999.09,1129.96 3000.47,1131.6 3001.07,1132.31C3001.33,1132.51 3002.01,1132.77 3002.69,1132.22C3003.36,1131.67 3010.26,1125.83 3013.62,1122.99C3013.94,1122.72 3014.69,1122.29 3015.19,1122.68C3015.82,1123.16 3015.76,1123.98 3014.88,1124.89C3014.17,1125.61 3006.46,1133.87 3002.69,1137.91C3002.16,1138.42 3000.82,1139.13 2999.59,1137.91C2998.37,1136.7 2995.59,1134 2994.35,1132.8C2994.06,1132.56 2993.63,1131.94 2994.24,1131.36Z" style="fill:rgb(3,176,170);"/>
                </g>
                <g transform="matrix(1.5477,0,0,1.5477,-3428.82,-1255.03)">
                    <circle cx="3004.77" cy="1130.55" r="15.544" style="fill:rgb(3,176,170);fill-opacity:0.2;"/>
                </g>
            </g>
        </g>
    </g>
</svg>
